<?xml version="1.0" standalone="no"?>
<!DOCTYPE svg PUBLIC "-//W3C//DTD SVG 20010904//EN"
 "http://www.w3.org/TR/2001/REC-SVG-20010904/DTD/svg10.dtd">
<svg version="1.0" xmlns="http://www.w3.org/2000/svg"
 width="1280.000000pt" height="1126.000000pt" viewBox="0 0 1280.000000 1126.000000"
 preserveAspectRatio="xMidYMid meet">
<g transform="translate(0.000000,1126.000000) scale(0.100000,-0.100000)"
fill="#000000" stroke="none">
<path d="M0 7140 l0 -4120 1865 0 1865 0 0 -128 0 -129 197 -6 c108 -4 577 -7
1042 -7 465 0 852 -4 858 -8 10 -6 -5 -77 -58 -292 -270 -1094 -329 -1331
-399 -1620 -43 -179 -81 -342 -85 -362 -4 -21 -13 -42 -20 -48 -8 -6 -60 -22
-117 -35 -57 -13 -137 -34 -178 -48 -60 -20 -104 -27 -220 -32 -80 -4 -963
-10 -1963 -14 -999 -5 -1820 -10 -1822 -13 -3 -3 -8 -28 -12 -56 l-6 -51 1974
-3 1974 -4 96 -27 c164 -46 485 -90 894 -123 177 -14 296 -16 750 -11 534 6
762 18 1040 52 240 29 473 72 530 97 24 10 409 13 2002 16 l1972 3 -6 52 c-3
29 -7 54 -9 56 -2 2 -881 8 -1953 12 l-1950 8 -103 35 c-57 19 -138 42 -181
52 -64 13 -78 20 -82 38 -10 44 -97 403 -140 581 -108 444 -140 575 -245 1000
-129 522 -180 732 -180 740 0 3 472 5 1049 5 577 0 1055 2 1063 5 10 4 12 34
10 135 l-3 130 1675 0 1676 0 0 4120 0 4120 -6400 0 -6400 0 0 -4120z m6415
-5578 c-3 -3 -60 -8 -127 -12 -68 -4 -169 -13 -225 -21 -56 -7 -105 -10 -109
-6 -7 7 119 544 229 977 l62 245 85 5 85 5 3 -594 c1 -327 0 -596 -3 -599z
m507 1180 c9 -9 21 -53 144 -567 125 -520 154 -648 150 -653 -2 -2 -68 4 -147
12 -79 9 -166 17 -194 19 l-50 2 -7 50 c-9 70 -10 1140 0 1149 8 9 93 -1 104
-12z m-502 -1383 l0 -52 -157 6 c-89 4 -197 14 -248 25 l-90 18 66 12 c63 11
216 28 324 35 118 8 105 13 105 -44z m676 20 c111 -16 120 -25 38 -38 -71 -11
-298 -41 -315 -41 -5 0 -9 23 -9 52 l0 51 103 -6 c57 -4 139 -12 183 -18z
m-996 -209 c96 -11 207 -21 245 -22 l70 -3 3 -326 3 -327 -113 -6 c-62 -3
-223 -11 -358 -17 -134 -6 -248 -13 -252 -15 -3 -2 -9 0 -12 4 -4 7 159 672
178 728 2 6 17 9 33 8 15 -2 107 -13 203 -24z m1298 -345 c49 -198 86 -363 83
-366 -3 -4 -89 0 -191 7 -102 7 -251 13 -332 13 l-148 1 0 334 0 333 103 7
c56 4 165 15 242 25 77 10 143 15 147 12 3 -3 47 -168 96 -366z"/>
</g>
</svg>
